<svg viewBox="0 0 100 100" xmlns="http://www.w3.org/2000/svg">
  <defs>
    <linearGradient id="g" x1="0" y1="0" x2="100" y2="100" gradientUnits="userSpaceOnUse">
      <stop offset="0%" stop-color="#10b981" />
      <stop offset="100%" stop-color="#fbbf24" />
    </linearGradient>
  </defs>
  <rect width="100" height="100" rx="22" fill="#0f1117" />
  <circle cx="50" cy="50" r="38" fill="none" stroke="url(#g)" stroke-width="5.5" />
  <circle cx="50" cy="50" r="8" fill="url(#g)" />
  <rect x="47.5" y="14" width="5" height="22" rx="2.5" fill="url(#g)" transform="rotate(0 50 50)" />
  <rect x="47.5" y="14" width="5" height="22" rx="2.5" fill="url(#g)" transform="rotate(51.4 50 50)" />
  <rect x="47.5" y="14" width="5" height="22" rx="2.5" fill="url(#g)" transform="rotate(102.9 50 50)" />
  <rect x="47.5" y="14" width="5" height="22" rx="2.5" fill="url(#g)" transform="rotate(154.3 50 50)" />
  <rect x="47.5" y="14" width="5" height="22" rx="2.5" fill="url(#g)" transform="rotate(205.7 50 50)" />
  <rect x="47.5" y="14" width="5" height="22" rx="2.5" fill="url(#g)" transform="rotate(257.1 50 50)" />
  <rect x="47.5" y="14" width="5" height="22" rx="2.5" fill="url(#g)" transform="rotate(308.6 50 50)" />
</svg>
